<svg version="1.2" xmlns="http://www.w3.org/2000/svg" viewBox="0 0 2048 2048" width="2048" height="2048">
	<style>
		.s0 { fill: #6a912d } 
	</style>
	<path id="&lt;Path&gt;" fill-rule="evenodd" class="s0" d="m1673.27 1001.04c3.81 75.33 4.69 150.83 6.39 226.26 0.27 12.19-1.5 24.42-2.09 33.1-21.1 22.72-37.24 9.62-55.3-0.04-5.2 17.32-10.29 34.29-15.83 52.75-27.14-3.93-51.39-7.45-77.04-11.17-7.06 15.69-12.83 28.54-18.42 40.95-20.76 4.53-36.62-3.73-41.33-20.83-13.09-47.5-37.22-93.54-19.6-146.1 5.04-15.02 3.14-33.82-0.23-49.92-9.71-46.26-4.32-92.26 1.47-137.81 11.32-89.11 25.54-177.85 39.98-276.44 10.09 69.31 7.3 129.43-1.99 189.13-11.65 74.86-20.31 149.63-14.83 225.6 3.2 44.22 13.28 86.2 32.2 127.96 24.11-19 9.79-42.52 12.93-62.69 3.55-22.76 5.78-45.74 8.39-68.64q3.57-31.22 6.66-62.49c2.26-22.98 4.25-45.98 6.34-68.97 2.04-22.49 4.06-44.97 6.38-70.69 16.46 7.81 12.54 18.95 12.45 26.98-0.53 48.22 0.76 96.72-3.98 144.58-5.26 53.2 1.83 104.6 11.91 156.11 0.96 4.87 7.14 8.71 11.31 13.51 13.9-26.12 13.98-26.12 13.65-57.23-0.19-18.64-0.68-37.29-1.06-57.26 9.75 4.81 16.86 8.31 23.97 11.81 14.04-4.85 18.3-17.65 20.08-29.44 2.81-18.55 2.62-37.59 3.03-56.44 0.44-20.95-1.42-42.05 0.46-62.84 4.71-51.87 12.63-103.57 4.09-157.23 5.22 9.61 13.47 18.74 15.1 28.93 6.29 39.32 12.9 78.87 14.91 118.56zm-759.52 252.64c0.76 14.16-1.24 28.46-2.16 46.7-16.88-1.59-30.41-2.86-46.9-4.41-6.99 5.3-16.73 12.69-29.17 22.12-10.2-6.08-20.37-12.14-27.71-16.51-8.84-40.64-16.08-77.53-24.97-114.01-18.25-74.95-15.27-149.69 0.81-224.37 1.67-7.76 6.92-14.76 10.04-21.16 16.67-2.04 20.53 9.11 20.69 18.49 0.24 14.45-3.51 28.94-5.2 43.46-9.57 82.49-4.56 163.28 29.13 240.48 3.98 9.13 10.22 17.29 21.14 35.38 12.97-95.27 13.07-180.78 14.53-265.9 1.44-83.54-2.51-167.18-4.23-257.99 17.04 40.02 20.65 77.22 22.75 114.71 7.15 127.67 14.44 255.32 21.25 383.01zm-228.79-14.01c0.38 26.74 0.99 53.47 1.6 85.27-22.57-7.17-39.69-12.6-54.7-17.37-12.13-46.48-23.1-88.98-34.31-131.4-17.32-65.53-20.89-132.44-19.86-199.75 0.51-33.22 7.41-65.1 20.69-94.22 15.27-0.76 17.48 8.57 17.59 16.17 0.31 20.89-0.9 41.82-1.87 62.72-3.53 75.67-0.83 150.64 25.78 233.89 26.44-55.53 2.02-106.66 24.28-149.78 17.82 3.4 18.2 14.76 18.4 24.59 1.15 56.62 1.6 113.26 2.4 169.88zm426.13 17.03c4.64 19.76 13.63 40.27-1.56 64-5.5 0.45-14.79 4.09-20.46 1.02-8.38-4.54-17.96-12.72-20.48-21.29-22.58-76.77-36.75-153.95-12.13-233.76 6.6-21.39 7.29-45.28 7.01-67.98-1.15-90.04-10.25-179.22-33.45-266.58-1.84-6.92-2.03-14.28-2.63-21.52 4.7 4.85 10.44 9.32 12.6 15.13 38.93 104.96 55.43 213.98 57.35 325.51 0.33 18.81 2 37.82 0.01 56.41-5.42 50.77 2.21 99.93 13.74 149.06zm-551.84 51.68c-23.74 14.63-41.34 13.23-45.92-4.94-6.57-26.04-11.21-53.17-11.96-79.97-2.09-75.11-1.75-150.3-2.42-225.45-0.11-12.51-0.46-25.01-0.8-42.83-11.92-10.11-21.39-18.14-31.71-26.88-10.38-44.49 10.18-79.34 36.31-120.48 13.16 28.33 1.8 49.95 2.51 75.62 19.05 22.55 19.42 54.13 21.65 85.44 2.82 39.62 6.8 79.16 9.72 118.77 1.39 18.74 3.8 37.85 1.69 56.33-6.48 56.91-3.15 112.32 20.93 164.39zm857-201.33c3.93 16.06 6.48 33.07 5.89 49.51-1.93 53.91-5.6 107.76-8.48 159.39-28.73 13.23-28.73 13.23-53.81-1.18-0.17-9.13-1.89-19.6-0.3-29.54 7.58-47.38 15.85-94.62 10.94-142.98-0.61-5.97-0.81-13.71 2.35-18.07 20.03-27.7 10.18-56.77 3.62-84.77-17.56-75.04-27.3-152.44-64.37-221.92-2.47-4.63-0.53-11.6-0.79-25.29 25.97 49.39 47.38 92.19 59.74 138.85 15.51 58.55 30.81 117.17 45.21 176zm-671.49 48.73c7.24 49.41 13.8 98.92 21.1 151.55-19.9 8.72-28.65-2.1-34.2-12.82-5.58-10.79-8.38-23.61-9.79-35.84-5.3-45.87-8.93-91.94-14.35-137.79-4.67-39.45-11.25-78.67-16.41-118.06-7.64-58.25-14.99-116.54-21.86-174.88-0.88-7.46 1.86-15.34 3.74-28.91 7.87 7.96 13.39 11.04 14.84 15.46 5.21 15.92 10.6 32.06 13.15 48.54 15.05 97.51 29.47 195.12 43.78 292.75zm481.05 116.67c-8.55 3.11-17.22 9.62-22.95 7.64-11.02-3.81-26.45-10.45-29.38-19.4-12.91-39.43-27.68-80.53-13.3-121.95 7.21-20.78 7.45-39.81 7.24-60.81-0.85-85.7 0.25-171.42 1-257.13 0.04-5.25 3.3-10.46 8.8-26.8 7.63 52 12.17 93.39 12.78 134.75 1.55 104.8 6.67 208.97 34.85 310.77 2.64 9.53 0.72 20.33 0.96 32.93zm-215.52 34.83c-8.68 4.97-16 12.69-21.94 11.74-9.19-1.47-21.29-6.82-25.21-14.2-6.58-12.4-10.01-27.58-10.73-41.8-4.23-83.62-4.86-167.13 8.7-250.28 6.33-38.81 9.52-78.12 14.55-120.77 5.77 6.61 12.34 10.63 12.76 15.21 1.69 18.67 4.08 37.87 1.59 56.24-15.67 115.16-17.01 229.41 20.28 343.86zm-641.16-404.01c75.99 119.01 114.09 235.2 97.23 365.58-2.39 18.53-5.89 37.36-12.53 54.65-2.55 6.65-15.29 9.39-28.06 16.52-2.85-17.3-8.4-29.67-6.1-40.36 27.92-129.86 5.35-252.58-49.88-371.13-1.51-3.23-0.33-7.72-0.66-25.26zm959.98 181.02c1.89 56.23 2.18 112.52 2.53 168.78 0.03 5.75-4.25 11.52-6.22 16.51-15.59 12.55-31.64 14.83-46.41 2.69-12.23-10.05-15.71-25.87-10.88-40.27 20.14-60.12 16.29-123.65 27.22-185.12 4.99-28.06-1.42-58.09-2.1-87.25-0.16-7.2 1.84-14.44 3.05-23.19 21.55 6.33 23.67 21.08 24.88 35.31 3.19 37.47 6.67 74.98 7.93 112.54zm-302.02-377.07c0.13 1.12 0.2 2.24 0.3 3.37q-0.97-0.99-1.86-2.01c0-1.32 0.12-2.68 0.26-4.05q0.65 1.35 1.3 2.69z"/>
</svg>