<svg version="1.2" xmlns="http://www.w3.org/2000/svg" viewBox="0 0 2048 2048" width="1024" height="1024">
	<defs>
		<clipPath id="rc">
			<rect width="2048" height="2048" rx="400" ry="400"/>
		</clipPath>
	</defs>
	<g clip-path="url(#rc)">
		<path id="Shape 1" fill-rule="evenodd" fill="#e8dfc9" d="m2048 0v2048h-2048v-2048z"/>
		<g id="Grass">
			<path fill="#6a912d" d="m1191.43 781.14c-3.71-66.28-10.09-132.03-40.22-202.79 3.04 160.53 10.02 308.38 7.48 456.07-2.58 150.47-2.76 301.63-25.68 470.04-19.3-31.98-30.34-46.39-37.38-62.54-59.56-136.47-68.41-279.29-51.49-425.11 2.98-25.66 9.62-51.27 9.19-76.82-0.29-16.59-7.11-36.29-36.57-32.69-5.52 11.31-14.79 23.68-17.75 37.4-28.43 132.02-33.7 264.14-1.43 396.64 15.71 64.5 28.51 129.7 44.14 201.54 12.97 7.73 30.95 18.44 48.98 29.18 21.99-16.67 39.21-29.72 51.57-39.1 29.15 2.75 53.06 5 82.91 7.81 1.63-32.25 5.16-57.54 3.82-82.57-12.04-225.71-24.93-451.38-37.57-677.06z"/>
			<path fill="#6a912d" d="m820.3 1133.13c-0.36-17.37-1.02-37.46-32.52-43.46-39.35 76.22 3.81 166.61-42.92 264.76-47.05-147.16-51.82-279.68-45.59-413.45 1.73-36.94 3.86-73.95 3.31-110.89-0.2-13.43-4.09-29.92-31.09-28.58-23.48 51.48-35.67 107.84-36.57 166.57-1.82 118.98 4.49 237.26 35.11 353.1 19.82 75 39.21 150.12 60.65 232.3 26.53 8.42 56.79 18.03 96.69 30.7-1.07-56.22-2.16-103.47-2.82-150.73-1.41-100.11-2.22-200.23-4.25-300.32z"/>
			<path fill="#6a912d" d="m1553.57 1199.05c3.51-32.87 0.55-66.47-0.03-99.72-3.39-197.17-32.55-389.89-101.39-575.44-3.8-10.26-13.96-18.17-22.27-26.75 1.07 12.81 1.4 25.81 4.65 38.04 41.01 154.45 57.11 312.1 59.13 471.27 0.51 40.12-0.72 82.36-12.38 120.16-43.53 141.09-18.49 277.52 21.44 413.25 4.45 15.13 21.39 29.6 36.2 37.62 10.02 5.43 26.45-1 36.17-1.8 26.86-41.95 10.96-78.2 2.76-113.13-20.38-86.86-33.87-173.76-24.28-263.5z"/>
			<path fill="#6a912d" d="m565.32 1264.3c3.73-32.67-0.54-66.44-2.98-99.57-5.16-70.03-12.21-139.92-17.19-209.96-3.94-55.36-4.6-111.18-38.27-151.05-1.25-45.37 18.82-83.59-4.45-133.68-46.18 72.73-82.53 134.34-64.18 212.99 18.24 15.46 34.98 29.64 56.06 47.51 0.6 31.5 1.21 53.6 1.41 75.72 1.18 132.86 0.58 265.76 4.28 398.55 1.32 47.37 9.53 95.32 21.14 141.36 8.1 32.12 39.22 34.6 81.18 8.74-42.57-92.04-48.46-190-37-290.61z"/>
			<path fill="#6a912d" d="m852.86 766.14c-4.5-29.14-14.03-57.66-23.24-85.81-2.56-7.8-12.32-13.25-26.23-27.33-3.32 23.99-8.17 37.93-6.62 51.12 12.15 103.13 25.14 206.17 38.64 309.14 9.14 69.64 20.76 138.96 29.01 208.7 9.59 81.06 16 162.5 25.37 243.59 2.5 21.62 7.45 44.29 17.31 63.35 9.8 18.94 25.28 38.08 60.46 22.66-12.91-93.04-24.5-180.56-37.3-267.91-25.3-172.58-50.79-345.13-77.4-517.51z"/>
			<path fill="#6a912d" d="m1778.96 1433.17c-49.82-179.95-58.87-364.1-61.62-549.37-1.08-73.11-9.1-146.29-22.58-238.21-9.74 28.89-15.49 38.11-15.57 47.38-1.33 151.52-3.26 303.06-1.76 454.56 0.37 37.12-0.05 70.75-12.81 107.48-25.42 73.23 0.69 145.89 23.52 215.59 5.18 15.83 32.46 27.55 51.94 34.29 10.13 3.5 25.45-8 40.56-13.51-0.42-22.27 2.98-41.36-1.68-58.21z"/>
			<path fill="#6a912d" d="m1363.8 945.09c4.41-32.48 0.18-66.41-2.81-99.42-0.74-8.1-12.35-15.21-22.54-26.88-8.9 75.38-14.55 144.89-25.73 213.49-23.97 146.99-22.87 294.61-15.38 442.45 1.27 25.12 7.34 51.96 18.97 73.87 6.93 13.06 28.32 22.51 44.57 25.11 10.49 1.68 23.44-11.96 38.78-20.75-65.93-202.33-63.55-404.3-35.86-607.87z"/>
			<path fill="#6a912d" d="m267.4 883.42c97.62 209.56 137.52 426.5 88.17 656.08-4.06 18.89 5.75 40.76 10.78 71.33 22.58-12.6 45.1-17.44 49.61-29.2 11.73-30.56 17.92-63.86 22.16-96.6 29.79-230.48-37.55-435.89-171.9-646.27 0.59 31.01-1.49 38.94 1.18 44.66z"/>
		</g>
	</g>
</svg>
